<svg xmlns="http://www.w3.org/2000/svg" width="1120" height="460" role="img">
<rect x="0" y="0" width="100%" height="100%" fill="#f8fafc"/>
<text x="290" y="40" font-size="30" font-family="Segoe UI, Arial, sans-serif" fill="#0f172a">Attack Off Rate by Malicious File</text>
<text x="290" y="64" font-size="14" font-family="Segoe UI, Arial, sans-serif" fill="#475569">run_id: wainject_eval_w202611_20260309T172201Z</text>
<line x1="290.00" y1="84" x2="290.00" y2="436" stroke="#cbd5e1" stroke-width="1"/>
<text x="290.00" y="454" text-anchor="middle" font-size="12" font-family="Segoe UI, Arial, sans-serif" fill="#64748b">0.00%</text>
<line x1="460.00" y1="84" x2="460.00" y2="436" stroke="#e2e8f0" stroke-width="1"/>
<text x="460.00" y="454" text-anchor="middle" font-size="12" font-family="Segoe UI, Arial, sans-serif" fill="#64748b">25.00%</text>
<line x1="630.00" y1="84" x2="630.00" y2="436" stroke="#e2e8f0" stroke-width="1"/>
<text x="630.00" y="454" text-anchor="middle" font-size="12" font-family="Segoe UI, Arial, sans-serif" fill="#64748b">50.00%</text>
<line x1="800.00" y1="84" x2="800.00" y2="436" stroke="#e2e8f0" stroke-width="1"/>
<text x="800.00" y="454" text-anchor="middle" font-size="12" font-family="Segoe UI, Arial, sans-serif" fill="#64748b">75.00%</text>
<line x1="970.00" y1="84" x2="970.00" y2="436" stroke="#cbd5e1" stroke-width="1"/>
<text x="970.00" y="454" text-anchor="middle" font-size="12" font-family="Segoe UI, Arial, sans-serif" fill="#64748b">100.00%</text>
<text x="278" y="121.00" text-anchor="end" font-size="15" font-family="Segoe UI, Arial, sans-serif" fill="#0f172a">EIA w EI</text>
<rect x="290" y="107.00" width="680.00" height="18" fill="#e2e8f0" rx="6" ry="6"/>
<rect x="290" y="107.00" width="680.00" height="18" fill="#2563eb" rx="6" ry="6"/>
<text x="980.00" y="121.00" font-size="14" font-family="Segoe UI, Arial, sans-serif" fill="#0f172a">100.00%</text>
<text x="278" y="161.00" text-anchor="end" font-size="15" font-family="Segoe UI, Arial, sans-serif" fill="#0f172a">VPI web text</text>
<rect x="290" y="147.00" width="680.00" height="18" fill="#e2e8f0" rx="6" ry="6"/>
<rect x="290" y="147.00" width="680.00" height="18" fill="#2563eb" rx="6" ry="6"/>
<text x="980.00" y="161.00" font-size="14" font-family="Segoe UI, Arial, sans-serif" fill="#0f172a">100.00%</text>
<text x="278" y="201.00" text-anchor="end" font-size="15" font-family="Segoe UI, Arial, sans-serif" fill="#0f172a">wasp</text>
<rect x="290" y="187.00" width="680.00" height="18" fill="#e2e8f0" rx="6" ry="6"/>
<rect x="290" y="187.00" width="680.00" height="18" fill="#2563eb" rx="6" ry="6"/>
<text x="980.00" y="201.00" font-size="14" font-family="Segoe UI, Arial, sans-serif" fill="#0f172a">100.00%</text>
<text x="278" y="241.00" text-anchor="end" font-size="15" font-family="Segoe UI, Arial, sans-serif" fill="#0f172a">VPI E M</text>
<rect x="290" y="227.00" width="680.00" height="18" fill="#e2e8f0" rx="6" ry="6"/>
<rect x="290" y="227.00" width="438.71" height="18" fill="#2563eb" rx="6" ry="6"/>
<text x="980.00" y="241.00" font-size="14" font-family="Segoe UI, Arial, sans-serif" fill="#0f172a">64.52%</text>
<text x="278" y="281.00" text-anchor="end" font-size="15" font-family="Segoe UI, Arial, sans-serif" fill="#0f172a">popup</text>
<rect x="290" y="267.00" width="680.00" height="18" fill="#e2e8f0" rx="6" ry="6"/>
<rect x="290" y="267.00" width="406.11" height="18" fill="#2563eb" rx="6" ry="6"/>
<text x="980.00" y="281.00" font-size="14" font-family="Segoe UI, Arial, sans-serif" fill="#0f172a">59.72%</text>
<text x="278" y="321.00" text-anchor="end" font-size="15" font-family="Segoe UI, Arial, sans-serif" fill="#0f172a">VWA adv w EI</text>
<rect x="290" y="307.00" width="680.00" height="18" fill="#e2e8f0" rx="6" ry="6"/>
<rect x="290" y="307.00" width="354.47" height="18" fill="#2563eb" rx="6" ry="6"/>
<text x="980.00" y="321.00" font-size="14" font-family="Segoe UI, Arial, sans-serif" fill="#0f172a">52.13%</text>
<text x="278" y="361.00" text-anchor="end" font-size="15" font-family="Segoe UI, Arial, sans-serif" fill="#0f172a">EIA wo EI</text>
<rect x="290" y="347.00" width="680.00" height="18" fill="#e2e8f0" rx="6" ry="6"/>
<rect x="290" y="347.00" width="0.00" height="18" fill="#2563eb" rx="6" ry="6"/>
<text x="980.00" y="361.00" font-size="14" font-family="Segoe UI, Arial, sans-serif" fill="#0f172a">0.00%</text>
<text x="278" y="401.00" text-anchor="end" font-size="15" font-family="Segoe UI, Arial, sans-serif" fill="#0f172a">VWA adv wo EI</text>
<rect x="290" y="387.00" width="680.00" height="18" fill="#e2e8f0" rx="6" ry="6"/>
<rect x="290" y="387.00" width="0.00" height="18" fill="#2563eb" rx="6" ry="6"/>
<text x="980.00" y="401.00" font-size="14" font-family="Segoe UI, Arial, sans-serif" fill="#0f172a">0.00%</text>
</svg>